<svg xmlns="http://www.w3.org/2000/svg" width="1293" height="1010" fill="none"><g filter="url(#a)"><path fill="#2D314D" fill-rule="evenodd" d="M20.207 478.399c-36.24 0-54.388 43.816-28.762 69.44L125.73 682.113a100.001 100.001 0 0 0 70.708 29.286h70.693c26.52 0 51.954 10.535 70.708 29.287l161.039 161.027A100.002 100.002 0 0 0 569.585 931h388.853c72.532 0 108.862-87.698 57.562-138.985l-86.387-86.385c-19.411-19.41-5.664-52.6 21.786-52.6 27.451 0 41.198-33.189 21.787-52.599l-195.335-195.32a100.002 100.002 0 0 0-70.708-29.287H472.701a99.998 99.998 0 0 1-70.708-29.287l-35.253-35.25A100.002 100.002 0 0 0 296.032 282H60.881c-51.25 0-76.914 61.963-40.674 98.199l28.761 28.76c25.627 25.624 7.479 69.44-28.761 69.44Z" clip-rule="evenodd"/></g><path fill="url(#b)" fill-rule="evenodd" d="M158.207 171.399c-36.24 0-54.388 43.816-28.762 69.44l134.284 134.274a100.001 100.001 0 0 0 70.708 29.286h70.693c26.52 0 51.954 10.535 70.708 29.287l161.039 161.027A100.002 100.002 0 0 0 707.585 624h388.855c72.53 0 108.86-87.698 57.56-138.985l-86.39-86.385c-19.41-19.41-5.66-52.6 21.79-52.6s41.2-33.189 21.79-52.599L915.851 98.111a100.002 100.002 0 0 0-70.708-29.287H610.701a99.998 99.998 0 0 1-70.708-29.287L504.74 4.287A100.001 100.001 0 0 0 434.032-25H198.88c-51.248 0-76.913 61.963-40.673 98.2l28.761 28.759c25.627 25.624 7.479 69.44-28.761 69.44Z" clip-rule="evenodd"/><defs><linearGradient id="b" x1="-553.913" x2="-21.166" y1="298.138" y2="1310.28" gradientUnits="userSpaceOnUse"><stop stop-color="#33D35E"/><stop offset="1" stop-color="#2AB6D9"/></linearGradient><filter id="a" width="1214.57" height="803" x="-97.551" y="207" color-interpolation-filters="sRGB" filterUnits="userSpaceOnUse"><feFlood flood-opacity="0" result="BackgroundImageFix"/><feColorMatrix in="SourceAlpha" result="hardAlpha" values="0 0 0 0 0 0 0 0 0 0 0 0 0 0 0 0 0 0 127 0"/><feOffset dy="2"/><feGaussianBlur stdDeviation="38.5"/><feColorMatrix values="0 0 0 0 0 0 0 0 0 0 0 0 0 0 0 0 0 0 0.0240111 0"/><feBlend in2="BackgroundImageFix" result="effect1_dropShadow_242_2"/><feBlend in="SourceGraphic" in2="effect1_dropShadow_242_2" result="shape"/></filter></defs></svg>